<?xml version="1.0" encoding="UTF-8" standalone="no"?>
<!DOCTYPE svg PUBLIC "-//W3C//DTD SVG 1.1//EN"
 "http://www.w3.org/Graphics/SVG/1.1/DTD/svg11.dtd">
<!-- Generated by graphviz version 2.43.0 (0)
 -->
<!-- Title: CreateAlignmentFromFamilies Pages: 1 -->
<svg width="344pt" height="260pt"
 viewBox="0.00 0.00 344.00 260.00" xmlns="http://www.w3.org/2000/svg" xmlns:xlink="http://www.w3.org/1999/xlink">
<g id="graph0" class="graph" transform="scale(1 1) rotate(0) translate(4 256)">
<title>CreateAlignmentFromFamilies</title>
<polygon fill="white" stroke="transparent" points="-4,4 -4,-256 340,-256 340,4 -4,4"/>
<g id="clust1" class="cluster">
<title>cluster_0</title>
<polygon fill="white" stroke="black" points="8,-64 8,-188 328,-188 328,-64 8,-64"/>
</g>
<!-- CALL_RunBwaAlignment -->
<g id="node1" class="node">
<title>CALL_RunBwaAlignment</title>
<ellipse fill="none" stroke="black" cx="168" cy="-90" rx="116.18" ry="18"/>
<text text-anchor="middle" x="168" y="-86.3" font-family="Times,serif" font-size="14.00">call RunBwaAlignment</text>
</g>
<!-- CALL_MergeBams -->
<g id="node2" class="node">
<title>CALL_MergeBams</title>
<ellipse fill="none" stroke="black" cx="168" cy="-18" rx="85.59" ry="18"/>
<text text-anchor="middle" x="168" y="-14.3" font-family="Times,serif" font-size="14.00">call MergeBams</text>
</g>
<!-- CALL_RunBwaAlignment&#45;&gt;CALL_MergeBams -->
<g id="edge1" class="edge">
<title>CALL_RunBwaAlignment&#45;&gt;CALL_MergeBams</title>
<path fill="none" stroke="black" d="M168,-71.7C168,-63.98 168,-54.71 168,-46.11"/>
<polygon fill="black" stroke="black" points="171.5,-46.1 168,-36.1 164.5,-46.1 171.5,-46.1"/>
</g>
<!-- CALL_SepareChunksFastqString -->
<g id="node3" class="node">
<title>CALL_SepareChunksFastqString</title>
<ellipse fill="none" stroke="black" cx="168" cy="-234" rx="152.17" ry="18"/>
<text text-anchor="middle" x="168" y="-230.3" font-family="Times,serif" font-size="14.00">call SepareChunksFastqString</text>
</g>
<!-- SCATTER_0_VARIABLE_chunk -->
<g id="node4" class="node">
<title>SCATTER_0_VARIABLE_chunk</title>
<polygon fill="none" stroke="black" points="319.7,-162 243.85,-180 92.15,-180 16.3,-162 92.15,-144 243.85,-144 319.7,-162"/>
<text text-anchor="middle" x="168" y="-158.3" font-family="Times,serif" font-size="14.00">scatter over File as chunk</text>
</g>
<!-- CALL_SepareChunksFastqString&#45;&gt;SCATTER_0_VARIABLE_chunk -->
<g id="edge2" class="edge">
<title>CALL_SepareChunksFastqString&#45;&gt;SCATTER_0_VARIABLE_chunk</title>
<path fill="none" stroke="black" d="M168,-215.7C168,-207.98 168,-198.71 168,-190.11"/>
<polygon fill="black" stroke="black" points="171.5,-190.1 168,-180.1 164.5,-190.1 171.5,-190.1"/>
</g>
<!-- SCATTER_0_VARIABLE_chunk&#45;&gt;CALL_RunBwaAlignment -->
<g id="edge3" class="edge">
<title>SCATTER_0_VARIABLE_chunk&#45;&gt;CALL_RunBwaAlignment</title>
<path fill="none" stroke="black" d="M168,-143.7C168,-135.98 168,-126.71 168,-118.11"/>
<polygon fill="black" stroke="black" points="171.5,-118.1 168,-108.1 164.5,-118.1 171.5,-118.1"/>
</g>
</g>
</svg>
