<?xml version="1.0" encoding="UTF-8" standalone="no"?>
<!DOCTYPE svg PUBLIC "-//W3C//DTD SVG 1.1//EN"
 "http://www.w3.org/Graphics/SVG/1.1/DTD/svg11.dtd">
<!-- Generated by graphviz version 2.43.0 (0)
 -->
<!-- Title: SNPCalling Pages: 1 -->
<svg width="960pt" height="148pt"
 viewBox="0.00 0.00 960.00 148.00" xmlns="http://www.w3.org/2000/svg" xmlns:xlink="http://www.w3.org/1999/xlink">
<g id="graph0" class="graph" transform="scale(1 1) rotate(0) translate(4 144)">
<title>SNPCalling</title>
<polygon fill="white" stroke="transparent" points="-4,4 -4,-144 956,-144 956,4 -4,4"/>
<g id="clust1" class="cluster">
<title>cluster_0</title>
<polygon fill="white" stroke="black" stroke-dasharray="5,2" points="8,-8 8,-68 528,-68 528,-8 8,-8"/>
</g>
<g id="clust2" class="cluster">
<title>cluster_1</title>
<polygon fill="white" stroke="black" stroke-dasharray="5,2" points="536,-8 536,-68 944,-68 944,-8 536,-8"/>
</g>
<!-- CALL_CreateAlignmentFromFamilies -->
<g id="node1" class="node">
<title>CALL_CreateAlignmentFromFamilies</title>
<ellipse fill="none" stroke="black" cx="605" cy="-118" rx="172.77" ry="18"/>
<ellipse fill="none" stroke="black" cx="605" cy="-118" rx="176.77" ry="22"/>
<text text-anchor="middle" x="605" y="-114.3" font-family="Times,serif" font-size="14.00">call CreateAlignmentFromFamilies</text>
</g>
<!-- CALL_FreebayesGenotyping -->
<g id="node2" class="node">
<title>CALL_FreebayesGenotyping</title>
<ellipse fill="none" stroke="black" cx="384" cy="-38" rx="131.88" ry="18"/>
<ellipse fill="none" stroke="black" cx="384" cy="-38" rx="135.88" ry="22"/>
<text text-anchor="middle" x="384" y="-34.3" font-family="Times,serif" font-size="14.00">call FreebayesGenotyping</text>
</g>
<!-- CALL_CreateAlignmentFromFamilies&#45;&gt;CALL_FreebayesGenotyping -->
<g id="edge1" class="edge">
<title>CALL_CreateAlignmentFromFamilies&#45;&gt;CALL_FreebayesGenotyping</title>
<path fill="none" stroke="black" d="M548.66,-97.12C517.95,-86.28 479.82,-72.82 447.99,-61.58"/>
<polygon fill="black" stroke="black" points="448.92,-58.2 438.33,-58.17 446.59,-64.8 448.92,-58.2"/>
</g>
<!-- CALL_GatkGenotyping -->
<g id="node3" class="node">
<title>CALL_GatkGenotyping</title>
<ellipse fill="none" stroke="black" cx="827" cy="-38" rx="105.09" ry="18"/>
<ellipse fill="none" stroke="black" cx="827" cy="-38" rx="109.08" ry="22"/>
<text text-anchor="middle" x="827" y="-34.3" font-family="Times,serif" font-size="14.00">call GatkGenotyping</text>
</g>
<!-- CALL_CreateAlignmentFromFamilies&#45;&gt;CALL_GatkGenotyping -->
<g id="edge2" class="edge">
<title>CALL_CreateAlignmentFromFamilies&#45;&gt;CALL_GatkGenotyping</title>
<path fill="none" stroke="black" d="M661.59,-97.12C693.14,-86.03 732.48,-72.21 764.88,-60.83"/>
<polygon fill="black" stroke="black" points="766.42,-63.99 774.7,-57.38 764.1,-57.39 766.42,-63.99"/>
</g>
<!-- CONDITIONAL_0_EXPRESSION -->
<g id="node4" class="node">
<title>CONDITIONAL_0_EXPRESSION</title>
<polygon fill="none" stroke="black" stroke-dasharray="5,2" points="230.14,-38 176.57,-56 69.43,-56 15.86,-38 69.43,-20 176.57,-20 230.14,-38"/>
<text text-anchor="middle" x="123" y="-34.3" font-family="Times,serif" font-size="14.00">if (run_freebayes)</text>
</g>
<!-- CONDITIONAL_1_EXPRESSION -->
<g id="node5" class="node">
<title>CONDITIONAL_1_EXPRESSION</title>
<polygon fill="none" stroke="black" stroke-dasharray="5,2" points="700.1,-38 661.05,-56 582.95,-56 543.9,-38 582.95,-20 661.05,-20 700.1,-38"/>
<text text-anchor="middle" x="622" y="-34.3" font-family="Times,serif" font-size="14.00">if (run_gatk)</text>
</g>
</g>
</svg>
