<?xml version="1.0" encoding="UTF-8" standalone="no"?>
<!DOCTYPE svg PUBLIC "-//W3C//DTD SVG 1.1//EN"
 "http://www.w3.org/Graphics/SVG/1.1/DTD/svg11.dtd">
<!-- Generated by graphviz version 2.43.0 (0)
 -->
<!-- Title: FreebayesGenotyping Pages: 1 -->
<svg width="510pt" height="428pt"
 viewBox="0.00 0.00 510.00 428.00" xmlns="http://www.w3.org/2000/svg" xmlns:xlink="http://www.w3.org/1999/xlink">
<g id="graph0" class="graph" transform="scale(1 1) rotate(0) translate(4 424)">
<title>FreebayesGenotyping</title>
<polygon fill="white" stroke="transparent" points="-4,4 -4,-424 506,-424 506,4 -4,4"/>
<g id="clust1" class="cluster">
<title>cluster_1</title>
<polygon fill="white" stroke="black" points="8,-232 8,-356 440,-356 440,-232 8,-232"/>
</g>
<g id="clust2" class="cluster">
<title>cluster_0</title>
<polygon fill="white" stroke="black" stroke-dasharray="5,2" points="128,-8 128,-60 494,-60 494,-8 128,-8"/>
</g>
<!-- CALL_mergeVCFs -->
<g id="node1" class="node">
<title>CALL_mergeVCFs</title>
<ellipse fill="none" stroke="black" cx="291" cy="-186" rx="83.69" ry="18"/>
<text text-anchor="middle" x="291" y="-182.3" font-family="Times,serif" font-size="14.00">call mergeVCFs</text>
</g>
<!-- CALL_Normalization -->
<g id="node2" class="node">
<title>CALL_Normalization</title>
<ellipse fill="none" stroke="black" cx="305" cy="-110" rx="95.58" ry="18"/>
<ellipse fill="none" stroke="black" cx="305" cy="-110" rx="99.58" ry="22"/>
<text text-anchor="middle" x="305" y="-106.3" font-family="Times,serif" font-size="14.00">call Normalization</text>
</g>
<!-- CALL_mergeVCFs&#45;&gt;CALL_Normalization -->
<g id="edge1" class="edge">
<title>CALL_mergeVCFs&#45;&gt;CALL_Normalization</title>
<path fill="none" stroke="black" d="M294.25,-167.84C295.7,-160.16 297.46,-150.88 299.13,-142.05"/>
<polygon fill="black" stroke="black" points="302.6,-142.51 301.02,-132.03 295.72,-141.21 302.6,-142.51"/>
</g>
<!-- CALL_ReplaceAD -->
<g id="node6" class="node">
<title>CALL_ReplaceAD</title>
<ellipse fill="none" stroke="black" cx="406" cy="-34" rx="79.89" ry="18"/>
<text text-anchor="middle" x="406" y="-30.3" font-family="Times,serif" font-size="14.00">call ReplaceAD</text>
</g>
<!-- CALL_Normalization&#45;&gt;CALL_ReplaceAD -->
<g id="edge6" class="edge">
<title>CALL_Normalization&#45;&gt;CALL_ReplaceAD</title>
<path fill="none" stroke="black" d="M332.6,-88.78C345.85,-79.07 361.77,-67.4 375.4,-57.42"/>
<polygon fill="black" stroke="black" points="377.54,-60.19 383.54,-51.46 373.4,-54.54 377.54,-60.19"/>
</g>
<!-- SCATTER_1_VARIABLE_chunk -->
<g id="node3" class="node">
<title>SCATTER_1_VARIABLE_chunk</title>
<polygon fill="none" stroke="black" points="431.77,-330 327.89,-348 120.11,-348 16.23,-330 120.11,-312 327.89,-312 431.77,-330"/>
<text text-anchor="middle" x="224" y="-326.3" font-family="Times,serif" font-size="14.00">scatter over Pair[File, File] as chunk</text>
</g>
<!-- CALL_RunFreebayes -->
<g id="node4" class="node">
<title>CALL_RunFreebayes</title>
<ellipse fill="none" stroke="black" cx="237" cy="-258" rx="96.68" ry="18"/>
<text text-anchor="middle" x="237" y="-254.3" font-family="Times,serif" font-size="14.00">call RunFreebayes</text>
</g>
<!-- SCATTER_1_VARIABLE_chunk&#45;&gt;CALL_RunFreebayes -->
<g id="edge2" class="edge">
<title>SCATTER_1_VARIABLE_chunk&#45;&gt;CALL_RunFreebayes</title>
<path fill="none" stroke="black" d="M227.21,-311.7C228.65,-303.98 230.37,-294.71 231.96,-286.11"/>
<polygon fill="black" stroke="black" points="235.44,-286.58 233.82,-276.1 228.56,-285.3 235.44,-286.58"/>
</g>
<!-- CALL_RunFreebayes&#45;&gt;CALL_mergeVCFs -->
<g id="edge3" class="edge">
<title>CALL_RunFreebayes&#45;&gt;CALL_mergeVCFs</title>
<path fill="none" stroke="black" d="M250.07,-240.05C256.57,-231.63 264.56,-221.28 271.74,-211.97"/>
<polygon fill="black" stroke="black" points="274.71,-213.84 278.05,-203.79 269.17,-209.57 274.71,-213.84"/>
</g>
<!-- CALL_CreateChunksBamByChr -->
<g id="node5" class="node">
<title>CALL_CreateChunksBamByChr</title>
<ellipse fill="none" stroke="black" cx="342" cy="-402" rx="145.67" ry="18"/>
<text text-anchor="middle" x="342" y="-398.3" font-family="Times,serif" font-size="14.00">call CreateChunksBamByChr</text>
</g>
<!-- CALL_CreateChunksBamByChr&#45;&gt;SCATTER_1_VARIABLE_chunk -->
<g id="edge5" class="edge">
<title>CALL_CreateChunksBamByChr&#45;&gt;SCATTER_1_VARIABLE_chunk</title>
<path fill="none" stroke="black" d="M313.74,-384.23C298.2,-375.02 278.73,-363.47 261.89,-353.48"/>
<polygon fill="black" stroke="black" points="263.24,-350.21 252.85,-348.12 259.67,-356.23 263.24,-350.21"/>
</g>
<!-- CALL_CreateChunksBamByChr&#45;&gt;CALL_ReplaceAD -->
<g id="edge4" class="edge">
<title>CALL_CreateChunksBamByChr&#45;&gt;CALL_ReplaceAD</title>
<path fill="none" stroke="black" d="M402.91,-385.57C418.43,-378.88 433.62,-369.39 444,-356 470.77,-321.47 460,-302.69 460,-259 460,-259 460,-259 460,-185 460,-139.3 437.53,-90.14 421.58,-61.01"/>
<polygon fill="black" stroke="black" points="424.62,-59.28 416.67,-52.28 418.52,-62.71 424.62,-59.28"/>
</g>
<!-- CONDITIONAL_0_EXPRESSION -->
<g id="node7" class="node">
<title>CONDITIONAL_0_EXPRESSION</title>
<polygon fill="none" stroke="black" stroke-dasharray="5,2" points="308.11,-34 265.06,-52 178.94,-52 135.89,-34 178.94,-16 265.06,-16 308.11,-34"/>
<text text-anchor="middle" x="222" y="-30.3" font-family="Times,serif" font-size="14.00">if (replaceAD)</text>
</g>
</g>
</svg>
