<?xml version="1.0" encoding="UTF-8" standalone="no"?>
<!DOCTYPE svg PUBLIC "-//W3C//DTD SVG 1.1//EN"
 "http://www.w3.org/Graphics/SVG/1.1/DTD/svg11.dtd">
<!-- Generated by graphviz version 2.43.0 (0)
 -->
<!-- Title: GatkGenotyping Pages: 1 -->
<svg width="1360pt" height="660pt"
 viewBox="0.00 0.00 1360.00 660.00" xmlns="http://www.w3.org/2000/svg" xmlns:xlink="http://www.w3.org/1999/xlink">
<g id="graph0" class="graph" transform="scale(1 1) rotate(0) translate(4 656)">
<title>GatkGenotyping</title>
<polygon fill="white" stroke="transparent" points="-4,4 -4,-656 1356,-656 1356,4 -4,4"/>
<g id="clust1" class="cluster">
<title>cluster_5</title>
<polygon fill="white" stroke="black" stroke-dasharray="5,2" points="1038,-8 1038,-68 1344,-68 1344,-8 1038,-8"/>
</g>
<g id="clust2" class="cluster">
<title>cluster_3</title>
<polygon fill="white" stroke="black" points="438,-464 438,-588 870,-588 870,-464 438,-464"/>
</g>
<g id="clust3" class="cluster">
<title>cluster_6</title>
<polygon fill="white" stroke="black" stroke-dasharray="5,2" points="664,-12 664,-64 1030,-64 1030,-12 664,-12"/>
</g>
<g id="clust4" class="cluster">
<title>cluster_4</title>
<polygon fill="white" stroke="black" points="878,-320 878,-516 1244,-516 1244,-320 878,-320"/>
</g>
<g id="clust5" class="cluster">
<title>cluster_0</title>
<polygon fill="white" stroke="black" stroke-dasharray="5,2" points="8,-160 8,-236 1155,-236 1155,-160 8,-160"/>
</g>
<g id="clust6" class="cluster">
<title>cluster_1</title>
<polygon fill="white" stroke="black" stroke-dasharray="5,2" points="712,-168 712,-228 1147,-228 1147,-168 712,-168"/>
</g>
<g id="clust7" class="cluster">
<title>cluster_2</title>
<polygon fill="white" stroke="black" stroke-dasharray="5,2" points="200,-168 200,-228 704,-228 704,-168 200,-168"/>
</g>
<!-- CALL_GenotypeGVCFs -->
<g id="node1" class="node">
<title>CALL_GenotypeGVCFs</title>
<ellipse fill="none" stroke="black" cx="1041" cy="-346" rx="105.88" ry="18"/>
<text text-anchor="middle" x="1041" y="-342.3" font-family="Times,serif" font-size="14.00">call GenotypeGVCFs</text>
</g>
<!-- CALL_MergeVCFs -->
<g id="node2" class="node">
<title>CALL_MergeVCFs</title>
<ellipse fill="none" stroke="black" cx="1041" cy="-274" rx="84.49" ry="18"/>
<text text-anchor="middle" x="1041" y="-270.3" font-family="Times,serif" font-size="14.00">call MergeVCFs</text>
</g>
<!-- CALL_GenotypeGVCFs&#45;&gt;CALL_MergeVCFs -->
<g id="edge1" class="edge">
<title>CALL_GenotypeGVCFs&#45;&gt;CALL_MergeVCFs</title>
<path fill="none" stroke="black" d="M1041,-327.7C1041,-319.98 1041,-310.71 1041,-302.11"/>
<polygon fill="black" stroke="black" points="1044.5,-302.1 1041,-292.1 1037.5,-302.1 1044.5,-302.1"/>
</g>
<!-- CALL_HardFilteringEmp -->
<g id="node3" class="node">
<title>CALL_HardFilteringEmp</title>
<ellipse fill="none" stroke="black" cx="577" cy="-198" rx="115.08" ry="18"/>
<ellipse fill="none" stroke="black" cx="577" cy="-198" rx="119.08" ry="22"/>
<text text-anchor="middle" x="577" y="-194.3" font-family="Times,serif" font-size="14.00">call HardFilteringEmp</text>
</g>
<!-- CALL_MergeVCFs&#45;&gt;CALL_HardFilteringEmp -->
<g id="edge15" class="edge">
<title>CALL_MergeVCFs&#45;&gt;CALL_HardFilteringEmp</title>
<path fill="none" stroke="black" d="M961.39,-267.86C893.57,-262.59 793.78,-252.76 708,-236 686.97,-231.89 664.41,-226.05 644.03,-220.22"/>
<polygon fill="black" stroke="black" points="644.8,-216.8 634.22,-217.37 642.85,-223.52 644.8,-216.8"/>
</g>
<!-- CALL_Normalization -->
<g id="node4" class="node">
<title>CALL_Normalization</title>
<ellipse fill="none" stroke="black" cx="1041" cy="-118" rx="95.58" ry="18"/>
<ellipse fill="none" stroke="black" cx="1041" cy="-118" rx="99.58" ry="22"/>
<text text-anchor="middle" x="1041" y="-114.3" font-family="Times,serif" font-size="14.00">call Normalization</text>
</g>
<!-- CALL_MergeVCFs&#45;&gt;CALL_Normalization -->
<g id="edge8" class="edge">
<title>CALL_MergeVCFs&#45;&gt;CALL_Normalization</title>
<path fill="none" stroke="black" d="M1110.72,-263.65C1126.43,-258.14 1141.3,-249.5 1151,-236 1170.71,-208.57 1170.27,-187.74 1151,-160 1144.3,-150.35 1135.05,-142.97 1124.72,-137.33"/>
<polygon fill="black" stroke="black" points="1125.94,-134.03 1115.41,-132.8 1122.87,-140.32 1125.94,-134.03"/>
</g>
<!-- CALL_HardFiltering -->
<g id="node12" class="node">
<title>CALL_HardFiltering</title>
<ellipse fill="none" stroke="black" cx="1041" cy="-198" rx="93.68" ry="18"/>
<ellipse fill="none" stroke="black" cx="1041" cy="-198" rx="97.68" ry="22"/>
<text text-anchor="middle" x="1041" y="-194.3" font-family="Times,serif" font-size="14.00">call HardFiltering</text>
</g>
<!-- CALL_MergeVCFs&#45;&gt;CALL_HardFiltering -->
<g id="edge10" class="edge">
<title>CALL_MergeVCFs&#45;&gt;CALL_HardFiltering</title>
<path fill="none" stroke="black" d="M1041,-255.84C1041,-248.16 1041,-238.88 1041,-230.05"/>
<polygon fill="black" stroke="black" points="1044.5,-230.03 1041,-220.03 1037.5,-230.03 1044.5,-230.03"/>
</g>
<!-- CALL_HardFilteringEmp&#45;&gt;CALL_Normalization -->
<g id="edge2" class="edge">
<title>CALL_HardFilteringEmp&#45;&gt;CALL_Normalization</title>
<path fill="none" stroke="black" d="M634.57,-178.68C657.27,-172.01 683.67,-164.9 708,-160 784.72,-144.54 872.63,-134.01 938.85,-127.5"/>
<polygon fill="black" stroke="black" points="939.26,-130.98 948.88,-126.53 938.59,-124.01 939.26,-130.98"/>
</g>
<!-- CALL_ReplaceAD -->
<g id="node10" class="node">
<title>CALL_ReplaceAD</title>
<ellipse fill="none" stroke="black" cx="942" cy="-38" rx="79.89" ry="18"/>
<text text-anchor="middle" x="942" y="-34.3" font-family="Times,serif" font-size="14.00">call ReplaceAD</text>
</g>
<!-- CALL_Normalization&#45;&gt;CALL_ReplaceAD -->
<g id="edge7" class="edge">
<title>CALL_Normalization&#45;&gt;CALL_ReplaceAD</title>
<path fill="none" stroke="black" d="M1015.25,-96.71C1001.65,-85.99 984.91,-72.81 970.87,-61.75"/>
<polygon fill="black" stroke="black" points="972.98,-58.95 962.96,-55.51 968.65,-64.45 972.98,-58.95"/>
</g>
<!-- CALL_MCHap -->
<g id="node11" class="node">
<title>CALL_MCHap</title>
<ellipse fill="none" stroke="black" cx="1267" cy="-38" rx="64.99" ry="18"/>
<ellipse fill="none" stroke="black" cx="1267" cy="-38" rx="68.99" ry="22"/>
<text text-anchor="middle" x="1267" y="-34.3" font-family="Times,serif" font-size="14.00">call MCHap</text>
</g>
<!-- CALL_Normalization&#45;&gt;CALL_MCHap -->
<g id="edge9" class="edge">
<title>CALL_Normalization&#45;&gt;CALL_MCHap</title>
<path fill="none" stroke="black" d="M1095.29,-99.55C1123.35,-90.4 1158.1,-78.85 1189,-68 1197.22,-65.11 1205.9,-61.98 1214.36,-58.87"/>
<polygon fill="black" stroke="black" points="1215.61,-62.13 1223.78,-55.39 1213.19,-55.57 1215.61,-62.13"/>
</g>
<!-- SCATTER_4_VARIABLE_interval -->
<g id="node5" class="node">
<title>SCATTER_4_VARIABLE_interval</title>
<polygon fill="none" stroke="black" points="1235.73,-490 1148.36,-508 973.64,-508 886.27,-490 973.64,-472 1148.36,-472 1235.73,-490"/>
<text text-anchor="middle" x="1061" y="-486.3" font-family="Times,serif" font-size="14.00">scatter over String as interval</text>
</g>
<!-- SCATTER_4_VARIABLE_interval&#45;&gt;CALL_GenotypeGVCFs -->
<g id="edge3" class="edge">
<title>SCATTER_4_VARIABLE_interval&#45;&gt;CALL_GenotypeGVCFs</title>
<path fill="none" stroke="black" d="M1070.25,-471.99C1078.85,-453.87 1089.2,-424.48 1081,-400 1077.59,-389.83 1071.38,-380.06 1064.86,-371.73"/>
<polygon fill="black" stroke="black" points="1067.42,-369.35 1058.32,-363.93 1062.06,-373.84 1067.42,-369.35"/>
</g>
<!-- CALL_ImportGVCFs -->
<g id="node9" class="node">
<title>CALL_ImportGVCFs</title>
<ellipse fill="none" stroke="black" cx="979" cy="-418" rx="92.88" ry="18"/>
<text text-anchor="middle" x="979" y="-414.3" font-family="Times,serif" font-size="14.00">call ImportGVCFs</text>
</g>
<!-- SCATTER_4_VARIABLE_interval&#45;&gt;CALL_ImportGVCFs -->
<g id="edge13" class="edge">
<title>SCATTER_4_VARIABLE_interval&#45;&gt;CALL_ImportGVCFs</title>
<path fill="none" stroke="black" d="M1040.73,-471.7C1030.35,-462.84 1017.56,-451.92 1006.32,-442.33"/>
<polygon fill="black" stroke="black" points="1008.35,-439.45 998.47,-435.62 1003.81,-444.78 1008.35,-439.45"/>
</g>
<!-- CALL_CreateChunksBam -->
<g id="node6" class="node">
<title>CALL_CreateChunksBam</title>
<ellipse fill="none" stroke="black" cx="814" cy="-634" rx="116.18" ry="18"/>
<text text-anchor="middle" x="814" y="-630.3" font-family="Times,serif" font-size="14.00">call CreateChunksBam</text>
</g>
<!-- CALL_CreateChunksBam&#45;&gt;SCATTER_4_VARIABLE_interval -->
<g id="edge4" class="edge">
<title>CALL_CreateChunksBam&#45;&gt;SCATTER_4_VARIABLE_interval</title>
<path fill="none" stroke="black" d="M842.82,-616.43C887.26,-590.88 972.6,-541.82 1022.36,-513.22"/>
<polygon fill="black" stroke="black" points="1024.29,-516.14 1031.21,-508.12 1020.8,-510.07 1024.29,-516.14"/>
</g>
<!-- SCATTER_3_VARIABLE_chunk -->
<g id="node7" class="node">
<title>SCATTER_3_VARIABLE_chunk</title>
<polygon fill="none" stroke="black" points="861.77,-562 757.89,-580 550.11,-580 446.23,-562 550.11,-544 757.89,-544 861.77,-562"/>
<text text-anchor="middle" x="654" y="-558.3" font-family="Times,serif" font-size="14.00">scatter over Pair[File, File] as chunk</text>
</g>
<!-- CALL_CreateChunksBam&#45;&gt;SCATTER_3_VARIABLE_chunk -->
<g id="edge14" class="edge">
<title>CALL_CreateChunksBam&#45;&gt;SCATTER_3_VARIABLE_chunk</title>
<path fill="none" stroke="black" d="M776.89,-616.76C754.64,-607.03 726.11,-594.55 702.14,-584.06"/>
<polygon fill="black" stroke="black" points="703.42,-580.8 692.86,-580 700.62,-587.22 703.42,-580.8"/>
</g>
<!-- CALL_HaplotypeCaller -->
<g id="node8" class="node">
<title>CALL_HaplotypeCaller</title>
<ellipse fill="none" stroke="black" cx="705" cy="-490" rx="105.08" ry="18"/>
<text text-anchor="middle" x="705" y="-486.3" font-family="Times,serif" font-size="14.00">call HaplotypeCaller</text>
</g>
<!-- SCATTER_3_VARIABLE_chunk&#45;&gt;CALL_HaplotypeCaller -->
<g id="edge5" class="edge">
<title>SCATTER_3_VARIABLE_chunk&#45;&gt;CALL_HaplotypeCaller</title>
<path fill="none" stroke="black" d="M666.61,-543.7C672.6,-535.47 679.88,-525.48 686.48,-516.42"/>
<polygon fill="black" stroke="black" points="689.48,-518.25 692.54,-508.1 683.82,-514.13 689.48,-518.25"/>
</g>
<!-- CALL_HaplotypeCaller&#45;&gt;CALL_ImportGVCFs -->
<g id="edge12" class="edge">
<title>CALL_HaplotypeCaller&#45;&gt;CALL_ImportGVCFs</title>
<path fill="none" stroke="black" d="M761.11,-474.67C805.98,-463.2 868.9,-447.13 915.59,-435.2"/>
<polygon fill="black" stroke="black" points="916.47,-438.59 925.3,-432.72 914.74,-431.8 916.47,-438.59"/>
</g>
<!-- CALL_ImportGVCFs&#45;&gt;CALL_GenotypeGVCFs -->
<g id="edge6" class="edge">
<title>CALL_ImportGVCFs&#45;&gt;CALL_GenotypeGVCFs</title>
<path fill="none" stroke="black" d="M994.01,-400.05C1001.51,-391.58 1010.74,-381.17 1019.02,-371.82"/>
<polygon fill="black" stroke="black" points="1021.69,-374.08 1025.7,-364.28 1016.45,-369.44 1021.69,-374.08"/>
</g>
<!-- CALL_HardFiltering&#45;&gt;CALL_Normalization -->
<g id="edge11" class="edge">
<title>CALL_HardFiltering&#45;&gt;CALL_Normalization</title>
<path fill="none" stroke="black" d="M1041,-175.69C1041,-167.8 1041,-158.68 1041,-150.1"/>
<polygon fill="black" stroke="black" points="1044.5,-150.02 1041,-140.02 1037.5,-150.02 1044.5,-150.02"/>
</g>
<!-- CONDITIONAL_5_EXPRESSION -->
<g id="node13" class="node">
<title>CONDITIONAL_5_EXPRESSION</title>
<polygon fill="none" stroke="black" stroke-dasharray="5,2" points="1179.59,-38 1146.29,-56 1079.71,-56 1046.41,-38 1079.71,-20 1146.29,-20 1179.59,-38"/>
<text text-anchor="middle" x="1113" y="-34.3" font-family="Times,serif" font-size="14.00">if (mchap)</text>
</g>
<!-- CONDITIONAL_6_EXPRESSION -->
<g id="node14" class="node">
<title>CONDITIONAL_6_EXPRESSION</title>
<polygon fill="none" stroke="black" stroke-dasharray="5,2" points="844.11,-38 801.06,-56 714.94,-56 671.89,-38 714.94,-20 801.06,-20 844.11,-38"/>
<text text-anchor="middle" x="758" y="-34.3" font-family="Times,serif" font-size="14.00">if (replaceAD)</text>
</g>
<!-- CONDITIONAL_1_EXPRESSION -->
<g id="node15" class="node">
<title>CONDITIONAL_1_EXPRESSION</title>
<polygon fill="none" stroke="black" stroke-dasharray="5,2" points="925.63,-198 874.32,-216 771.68,-216 720.37,-198 771.68,-180 874.32,-180 925.63,-198"/>
<text text-anchor="middle" x="823" y="-194.3" font-family="Times,serif" font-size="14.00">if (defined(seed))</text>
</g>
<!-- CONDITIONAL_2_EXPRESSION -->
<g id="node16" class="node">
<title>CONDITIONAL_2_EXPRESSION</title>
<polygon fill="none" stroke="black" stroke-dasharray="5,2" points="439.65,-198 381.83,-216 266.17,-216 208.35,-198 266.17,-180 381.83,-180 439.65,-198"/>
<text text-anchor="middle" x="324" y="-194.3" font-family="Times,serif" font-size="14.00">if (!(defined(seed)))</text>
</g>
<!-- CONDITIONAL_0_EXPRESSION -->
<g id="node17" class="node">
<title>CONDITIONAL_0_EXPRESSION</title>
<polygon fill="none" stroke="black" stroke-dasharray="5,2" points="190.11,-198 146.56,-216 59.44,-216 15.89,-198 59.44,-180 146.56,-180 190.11,-198"/>
<text text-anchor="middle" x="103" y="-194.3" font-family="Times,serif" font-size="14.00">if (hardfilters)</text>
</g>
</g>
</svg>
